<?xml version="1.0" encoding="UTF-8"?>
<svg xmlns="http://www.w3.org/2000/svg" width="1600" height="860" viewBox="0 0 1600 860" role="img" aria-label="p95 exitoso por escenario">
  <rect width="100%" height="100%" fill="#f8fafc"/>
  <text x="40" y="44" font-family="Arial, sans-serif" font-size="26" font-weight="700" fill="#0f172a">p95 exitoso por escenario</text>
  <text x="40" y="828" font-family="Arial, sans-serif" font-size="13" fill="#475569">Advertencia metodologica: HTTP, pool, driver, GC, Docker Desktop y PostgreSQL estan dentro de la medicion.</text>
  <g font-family="Arial, sans-serif">
    <line x1="88" y1="610" x2="1548" y2="610" stroke="#94a3b8" />
    <line x1="88" y1="78" x2="88" y2="610" stroke="#94a3b8" />
    
      <rect x="92" y="603.9070812229338" width="65" height="6.092918777066211" rx="3" fill="#16a34a" />
      <text x="124.5" y="597.9070812229338" text-anchor="middle" font-size="12" fill="#0f172a">84.84</text>
      <text x="124.5" y="638" text-anchor="end" transform="rotate(-52 124.5 638)" font-size="13" fill="#334155">n-plus-one-trap-best / jdbc</text>
      <rect x="165" y="606.7840534790544" width="65" height="3.215946520945603" rx="3" fill="#2563eb" />
      <text x="197.5" y="600.7840534790544" text-anchor="middle" font-size="12" fill="#0f172a">44.78</text>
      <text x="197.5" y="638" text-anchor="end" transform="rotate(-52 197.5 638)" font-size="13" fill="#334155">n-plus-one-trap-best / prisma</text>
      <rect x="238" y="604.4428329211529" width="65" height="5.557167078847046" rx="3" fill="#16a34a" />
      <text x="270.5" y="598.4428329211529" text-anchor="middle" font-size="12" fill="#0f172a">77.38</text>
      <text x="270.5" y="638" text-anchor="end" transform="rotate(-52 270.5 638)" font-size="13" fill="#334155">n-plus-one-trap-idio / jdbc</text>
      <rect x="311" y="598.7319783578301" width="65" height="11.268021642169833" rx="3" fill="#2563eb" />
      <text x="343.5" y="592.7319783578301" text-anchor="middle" font-size="12" fill="#0f172a">156.9</text>
      <text x="343.5" y="638" text-anchor="end" transform="rotate(-52 343.5 638)" font-size="13" fill="#334155">n-plus-one-trap-idio / prisma</text>
      <rect x="384" y="482.46739635193364" width="65" height="127.53260364806634" rx="3" fill="#16a34a" />
      <text x="416.5" y="476.46739635193364" text-anchor="middle" font-size="12" fill="#0f172a">1775.81</text>
      <text x="416.5" y="638" text-anchor="end" transform="rotate(-52 416.5 638)" font-size="13" fill="#334155">n-plus-one-trap-naive / jdbc</text>
      <rect x="457" y="544.7237545492835" width="65" height="65.27624545071654" rx="3" fill="#2563eb" />
      <text x="489.5" y="538.7237545492835" text-anchor="middle" font-size="12" fill="#0f172a">908.93</text>
      <text x="489.5" y="638" text-anchor="end" transform="rotate(-52 489.5 638)" font-size="13" fill="#334155">n-plus-one-trap-naive / prisma</text>
      <rect x="530" y="606.4429247167835" width="65" height="3.557075283216519" rx="3" fill="#16a34a" />
      <text x="562.5" y="600.4429247167835" text-anchor="middle" font-size="12" fill="#0f172a">49.53</text>
      <text x="562.5" y="638" text-anchor="end" transform="rotate(-52 562.5 638)" font-size="13" fill="#334155">paginated-list / jdbc</text>
      <rect x="603" y="607.7112055466159" width="65" height="2.288794453384019" rx="3" fill="#2563eb" />
      <text x="635.5" y="601.7112055466159" text-anchor="middle" font-size="12" fill="#0f172a">31.87</text>
      <text x="635.5" y="638" text-anchor="end" transform="rotate(-52 635.5 638)" font-size="13" fill="#334155">paginated-list / prisma</text>
      <rect x="676" y="606.0587060055941" width="65" height="3.941293994405866" rx="3" fill="#16a34a" />
      <text x="708.5" y="600.0587060055941" text-anchor="middle" font-size="12" fill="#0f172a">54.88</text>
      <text x="708.5" y="638" text-anchor="end" transform="rotate(-52 708.5 638)" font-size="13" fill="#334155">read-by-id / jdbc</text>
      <rect x="749" y="605.8030389753447" width="65" height="4.196961024655226" rx="3" fill="#2563eb" />
      <text x="781.5" y="599.8030389753447" text-anchor="middle" font-size="12" fill="#0f172a">58.44</text>
      <text x="781.5" y="638" text-anchor="end" transform="rotate(-52 781.5 638)" font-size="13" fill="#334155">read-by-id / prisma</text>
      <rect x="822" y="607.2982602028144" width="65" height="2.701739797185654" rx="3" fill="#16a34a" />
      <text x="854.5" y="601.2982602028144" text-anchor="middle" font-size="12" fill="#0f172a">37.62</text>
      <text x="854.5" y="638" text-anchor="end" transform="rotate(-52 854.5 638)" font-size="13" fill="#334155">read-by-id-best / jdbc</text>
      <rect x="895" y="607.5704450468157" width="65" height="2.429554953184228" rx="3" fill="#2563eb" />
      <text x="927.5" y="601.5704450468157" text-anchor="middle" font-size="12" fill="#0f172a">33.83</text>
      <text x="927.5" y="638" text-anchor="end" transform="rotate(-52 927.5 638)" font-size="13" fill="#334155">read-by-id-best / prisma</text>
      <rect x="968" y="540.3702333768913" width="65" height="69.62976662310874" rx="3" fill="#16a34a" />
      <text x="1000.5" y="534.3702333768913" text-anchor="middle" font-size="12" fill="#0f172a">969.55</text>
      <text x="1000.5" y="638" text-anchor="end" transform="rotate(-52 1000.5 638)" font-size="13" fill="#334155">relation-summary-best / jdbc</text>
      <rect x="1041" y="553.160048381697" width="65" height="56.83995161830297" rx="3" fill="#2563eb" />
      <text x="1073.5" y="547.160048381697" text-anchor="middle" font-size="12" fill="#0f172a">791.46</text>
      <text x="1073.5" y="638" text-anchor="end" transform="rotate(-52 1073.5 638)" font-size="13" fill="#334155">relation-summary-best / prisma</text>
      <rect x="1114" y="78" width="65" height="532" rx="3" fill="#16a34a" />
      <text x="1146.5" y="72" text-anchor="middle" font-size="12" fill="#0f172a">7407.76</text>
      <text x="1146.5" y="638" text-anchor="end" transform="rotate(-52 1146.5 638)" font-size="13" fill="#334155">relation-summary-naive / jdbc</text>
      <rect x="1187" y="161.20094603496875" width="65" height="448.79905396503125" rx="3" fill="#2563eb" />
      <text x="1219.5" y="155.20094603496875" text-anchor="middle" font-size="12" fill="#0f172a">6249.24</text>
      <text x="1219.5" y="638" text-anchor="end" transform="rotate(-52 1219.5 638)" font-size="13" fill="#334155">relation-summary-naive / prisma</text>
      <rect x="1260" y="594.7870935343477" width="65" height="15.212906465652235" rx="3" fill="#16a34a" />
      <text x="1292.5" y="588.7870935343477" text-anchor="middle" font-size="12" fill="#0f172a">211.83</text>
      <text x="1292.5" y="638" text-anchor="end" transform="rotate(-52 1292.5 638)" font-size="13" fill="#334155">report-aggregation-best / jdbc</text>
      <rect x="1333" y="596.3900396341135" width="65" height="13.609960365886584" rx="3" fill="#2563eb" />
      <text x="1365.5" y="590.3900396341135" text-anchor="middle" font-size="12" fill="#0f172a">189.51</text>
      <text x="1365.5" y="638" text-anchor="end" transform="rotate(-52 1365.5 638)" font-size="13" fill="#334155">report-aggregation-best / prisma</text>
      <rect x="1406" y="603.7943291899305" width="65" height="6.20567081006944" rx="3" fill="#16a34a" />
      <text x="1438.5" y="597.7943291899305" text-anchor="middle" font-size="12" fill="#0f172a">86.41</text>
      <text x="1438.5" y="638" text-anchor="end" transform="rotate(-52 1438.5 638)" font-size="13" fill="#334155">transaction-write / jdbc</text>
      <rect x="1479" y="603.7620117282418" width="65" height="6.237988271758264" rx="3" fill="#2563eb" />
      <text x="1511.5" y="597.7620117282418" text-anchor="middle" font-size="12" fill="#0f172a">86.86</text>
      <text x="1511.5" y="638" text-anchor="end" transform="rotate(-52 1511.5 638)" font-size="13" fill="#334155">transaction-write / prisma</text>
    <circle cx="1370" cy="38" r="7" fill="#2563eb"/><text x="1384" y="42" font-size="13">Prisma</text>
    <circle cx="1460" cy="38" r="7" fill="#16a34a"/><text x="1474" y="42" font-size="13">JDBC</text>
  </g>
</svg>