<?xml version="1.0" encoding="UTF-8"?>
<svg xmlns="http://www.w3.org/2000/svg" width="1200" height="720" viewBox="0 0 1200 720" role="img" aria-label="SQL por request exitoso">
  <rect width="100%" height="100%" fill="#f8fafc"/>
  <text x="40" y="44" font-family="Arial, sans-serif" font-size="26" font-weight="700" fill="#0f172a">SQL por request exitoso</text>
  <text x="40" y="688" font-family="Arial, sans-serif" font-size="13" fill="#475569">Advertencia metodologica: HTTP, pool, driver, GC, Docker Desktop y PostgreSQL estan dentro de la medicion.</text>
  <g font-family="Arial, sans-serif">
    <line x1="78" y1="530" x2="1152" y2="530" stroke="#94a3b8" />
    <line x1="78" y1="72" x2="78" y2="530" stroke="#94a3b8" />
    
      <rect x="82" y="72" width="59.125" height="458" rx="3" fill="#16a34a" />
      <text x="111.5625" y="66" text-anchor="middle" font-size="12" fill="#0f172a">301</text>
      <text x="111.5625" y="550" text-anchor="end" transform="rotate(-55 111.5625 550)" font-size="12" fill="#334155">n-plus-one-trap-naive / jdbc</text>
      <rect x="149.125" y="373.2300996677741" width="59.125" height="156.76990033222592" rx="3" fill="#2563eb" />
      <text x="178.6875" y="367.2300996677741" text-anchor="middle" font-size="12" fill="#0f172a">103.03</text>
      <text x="178.6875" y="550" text-anchor="end" transform="rotate(-55 178.6875 550)" font-size="12" fill="#334155">n-plus-one-trap-naive / prisma</text>
      <rect x="216.25" y="526.9568106312292" width="59.125" height="3.043189368770764" rx="3" fill="#16a34a" />
      <text x="245.8125" y="520.9568106312292" text-anchor="middle" font-size="12" fill="#0f172a">2</text>
      <text x="245.8125" y="550" text-anchor="end" transform="rotate(-55 245.8125 550)" font-size="12" fill="#334155">n-plus-one-trap-opt / jdbc</text>
      <rect x="283.375" y="523.9136212624585" width="59.125" height="6.086378737541528" rx="3" fill="#2563eb" />
      <text x="312.9375" y="517.9136212624585" text-anchor="middle" font-size="12" fill="#0f172a">4</text>
      <text x="312.9375" y="550" text-anchor="end" transform="rotate(-55 312.9375 550)" font-size="12" fill="#334155">n-plus-one-trap-opt / prisma</text>
      <rect x="350.5" y="528.4784053156146" width="59.125" height="1.521594684385382" rx="3" fill="#16a34a" />
      <text x="380.0625" y="522.4784053156146" text-anchor="middle" font-size="12" fill="#0f172a">1</text>
      <text x="380.0625" y="550" text-anchor="end" transform="rotate(-55 380.0625 550)" font-size="12" fill="#334155">paginated-list / jdbc</text>
      <rect x="417.625" y="528.4784053156146" width="59.125" height="1.521594684385382" rx="3" fill="#2563eb" />
      <text x="447.1875" y="522.4784053156146" text-anchor="middle" font-size="12" fill="#0f172a">1</text>
      <text x="447.1875" y="550" text-anchor="end" transform="rotate(-55 447.1875 550)" font-size="12" fill="#334155">paginated-list / prisma</text>
      <rect x="484.75" y="528.4784053156146" width="59.125" height="1.521594684385382" rx="3" fill="#16a34a" />
      <text x="514.3125" y="522.4784053156146" text-anchor="middle" font-size="12" fill="#0f172a">1</text>
      <text x="514.3125" y="550" text-anchor="end" transform="rotate(-55 514.3125 550)" font-size="12" fill="#334155">read-by-id / jdbc</text>
      <rect x="551.875" y="523.9136212624585" width="59.125" height="6.086378737541528" rx="3" fill="#2563eb" />
      <text x="581.4375" y="517.9136212624585" text-anchor="middle" font-size="12" fill="#0f172a">4</text>
      <text x="581.4375" y="550" text-anchor="end" transform="rotate(-55 581.4375 550)" font-size="12" fill="#334155">read-by-id / prisma</text>
      <rect x="619" y="224.15946843853817" width="59.125" height="305.84053156146183" rx="3" fill="#16a34a" />
      <text x="648.5625" y="218.15946843853817" text-anchor="middle" font-size="12" fill="#0f172a">201</text>
      <text x="648.5625" y="550" text-anchor="end" transform="rotate(-55 648.5625 550)" font-size="12" fill="#334155">relation-summary-naive / jdbc</text>
      <rect x="686.125" y="223.7942857142857" width="59.125" height="306.2057142857143" rx="3" fill="#2563eb" />
      <text x="715.6875" y="217.7942857142857" text-anchor="middle" font-size="12" fill="#0f172a">201.24</text>
      <text x="715.6875" y="550" text-anchor="end" transform="rotate(-55 715.6875 550)" font-size="12" fill="#334155">relation-summary-naive / prisma</text>
      <rect x="753.25" y="526.9568106312292" width="59.125" height="3.043189368770764" rx="3" fill="#16a34a" />
      <text x="782.8125" y="520.9568106312292" text-anchor="middle" font-size="12" fill="#0f172a">2</text>
      <text x="782.8125" y="550" text-anchor="end" transform="rotate(-55 782.8125 550)" font-size="12" fill="#334155">relation-summary-opt / jdbc</text>
      <rect x="820.375" y="526.8959468438538" width="59.125" height="3.1040531561461795" rx="3" fill="#2563eb" />
      <text x="849.9375" y="520.8959468438538" text-anchor="middle" font-size="12" fill="#0f172a">2.04</text>
      <text x="849.9375" y="550" text-anchor="end" transform="rotate(-55 849.9375 550)" font-size="12" fill="#334155">relation-summary-opt / prisma</text>
      <rect x="887.5" y="528.4784053156146" width="59.125" height="1.521594684385382" rx="3" fill="#16a34a" />
      <text x="917.0625" y="522.4784053156146" text-anchor="middle" font-size="12" fill="#0f172a">1</text>
      <text x="917.0625" y="550" text-anchor="end" transform="rotate(-55 917.0625 550)" font-size="12" fill="#334155">report-aggregation / jdbc</text>
      <rect x="954.625" y="528.4631893687707" width="59.125" height="1.536810631229236" rx="3" fill="#2563eb" />
      <text x="984.1875" y="522.4631893687707" text-anchor="middle" font-size="12" fill="#0f172a">1.01</text>
      <text x="984.1875" y="550" text-anchor="end" transform="rotate(-55 984.1875 550)" font-size="12" fill="#334155">report-aggregation / prisma</text>
      <rect x="1021.75" y="522.3920265780731" width="59.125" height="7.607973421926911" rx="3" fill="#16a34a" />
      <text x="1051.3125" y="516.3920265780731" text-anchor="middle" font-size="12" fill="#0f172a">5</text>
      <text x="1051.3125" y="550" text-anchor="end" transform="rotate(-55 1051.3125 550)" font-size="12" fill="#334155">transaction-write / jdbc</text>
      <rect x="1088.875" y="519.3336212624585" width="59.125" height="10.666378737541528" rx="3" fill="#2563eb" />
      <text x="1118.4375" y="513.3336212624585" text-anchor="middle" font-size="12" fill="#0f172a">7.01</text>
      <text x="1118.4375" y="550" text-anchor="end" transform="rotate(-55 1118.4375 550)" font-size="12" fill="#334155">transaction-write / prisma</text>
    <circle cx="970" cy="38" r="7" fill="#2563eb"/><text x="984" y="42" font-size="13">Prisma</text>
    <circle cx="1060" cy="38" r="7" fill="#16a34a"/><text x="1074" y="42" font-size="13">JDBC</text>
  </g>
</svg>